<?xml version="1.0" encoding="UTF-8"?>
<svg version="1.1" xmlns="http://www.w3.org/2000/svg" width="192" height="114">
<path d="M0 0 C2.75908431 2.12518157 3.87628719 3.29184434 4.48242188 6.76147461 C4.47791016 7.79796143 4.47339844 8.83444824 4.46875 9.90234375 C4.48292969 11.03994141 4.49710938 12.17753906 4.51171875 13.34960938 C4.50391901 15.73763025 4.49610655 18.12565108 4.48828125 20.51367188 C4.50246094 21.65255859 4.51664063 22.79144531 4.53125 23.96484375 C4.52673828 25.0024585 4.52222656 26.04007324 4.51757812 27.10913086 C5.12603887 30.75527645 6.39429886 32.41791813 9 35 C12.42199783 35.6337033 14.70351948 35.82986566 17.71484375 33.90234375 C19.19512237 32.6609365 20.60179661 31.33317067 22 30 C22.99 29.505 22.99 29.505 24 29 C23.690625 28.46375 23.38125 27.9275 23.0625 27.375 C19.58595475 19.60389885 20.46299875 10.87805652 23 3 C24.1875 1 24.1875 1 26 0 C32.0890973 -0.65240328 32.0890973 -0.65240328 34.734375 1.2421875 C36.40817686 3.5669123 36.1784656 4.70565914 35.75 7.5 C35.58757812 8.66015625 35.58757812 8.66015625 35.421875 9.84375 C35 12 35 12 34 15 C33.90729714 16.45598022 33.87002075 17.91608005 33.875 19.375 C33.87242187 20.12523438 33.86984375 20.87546875 33.8671875 21.6484375 C33.94453396 24.02201705 33.94453396 24.02201705 34.48828125 26.39453125 C35.79819977 33.06411639 36.13989383 40.48289691 33.25 46.75 C31 50 31 50 28.859375 50.703125 C27.93898437 50.85007812 27.93898437 50.85007812 27 51 C27 49.35 27 47.7 27 46 C26.835 47.093125 26.67 48.18625 26.5 49.3125 C25 53 25 53 23.3671875 54.1328125 C15.35986529 57.36714265 8.42272712 56.41178439 0.55859375 53.3359375 C-4.39505007 50.74945477 -7.04646489 47.03709774 -9.375 42.0625 C-9.684375 41.0415625 -9.684375 41.0415625 -10 40 C-10.18175781 41.06541016 -10.18175781 41.06541016 -10.3671875 42.15234375 C-10.53476563 43.07144531 -10.70234375 43.99054688 -10.875 44.9375 C-11.03742188 45.85402344 -11.19984375 46.77054688 -11.3671875 47.71484375 C-11.68042969 48.84599609 -11.68042969 48.84599609 -12 50 C-15.0832635 51.54163175 -17.60878099 51.29747535 -21 51 C-23.73944079 48.59821122 -24.21773166 46.3783632 -24.51171875 42.890625 C-24.58440698 41.34434821 -24.64259399 39.79733285 -24.6875 38.25 C-24.72166016 37.45722656 -24.75582031 36.66445312 -24.79101562 35.84765625 C-24.87319104 33.89892496 -24.93828045 31.94948638 -25 30 C-25.03738281 31.18078125 -25.07476562 32.3615625 -25.11328125 33.578125 C-25.17895149 35.13544788 -25.24539847 36.69273814 -25.3125 38.25 C-25.33505859 39.02730469 -25.35761719 39.80460937 -25.38085938 40.60546875 C-25.54100925 44.01229343 -25.72241542 46.45660715 -27.2890625 49.5234375 C-29.37214511 51.32116632 -30.3416171 51.48688677 -33.0625 51.375 C-37 51 -37 51 -39 49 C-40.28124697 45.0161954 -40.33886065 40.9001597 -40.5625 36.75 C-40.60568359 36.00492188 -40.64886719 35.25984375 -40.69335938 34.4921875 C-40.79896725 32.661651 -40.89994201 30.83084824 -41 29 C-41.03738281 30.25296875 -41.07476562 31.5059375 -41.11328125 32.796875 C-41.17894885 34.44794621 -41.24539593 36.09898655 -41.3125 37.75 C-41.33505859 38.575 -41.35761719 39.4 -41.38085938 40.25 C-41.53804388 43.79379617 -41.67391364 46.37187495 -43.32421875 49.55078125 C-45 51 -45 51 -48.5 51.4375 C-52 51 -52 51 -53.67578125 49.859375 C-55.55548666 47.22002463 -55.51506734 45.01974745 -55.6875 41.8125 C-55.75324219 40.72582031 -55.81898437 39.63914063 -55.88671875 38.51953125 C-55.94279297 37.27236328 -55.94279297 37.27236328 -56 36 C-56.52013672 36.73669922 -56.52013672 36.73669922 -57.05078125 37.48828125 C-60.00245834 39.77745767 -62.52009699 39.2884377 -66.1875 39.1875 C-67.45980469 39.16042969 -68.73210937 39.13335937 -70.04296875 39.10546875 C-71.50669922 39.05326172 -71.50669922 39.05326172 -73 39 C-73 39.66 -73 40.32 -73 41 C-68.38 41 -63.76 41 -59 41 C-58.01 43.475 -58.01 43.475 -57 46 C-58.1875 48.75 -58.1875 48.75 -60 51 C-66.23282742 53.07760914 -73.57422068 53.08831083 -79.5625 50.25 C-82.40102103 48.59763848 -84.34384859 46.89826497 -86 44 C-86.391875 44.94875 -86.78375 45.8975 -87.1875 46.875 C-89 50 -89 50 -91.375 51.5 C-94.60164077 52.11459824 -96.12946878 51.51500259 -99 50 C-100 49 -100 49 -100.11352539 46.95874023 C-100.10828857 46.08419189 -100.10305176 45.20964355 -100.09765625 44.30859375 C-100.09443359 43.36435547 -100.09121094 42.42011719 -100.08789062 41.44726562 C-100.07951172 40.45404297 -100.07113281 39.46082031 -100.0625 38.4375 C-100.05798828 37.44041016 -100.05347656 36.44332031 -100.04882812 35.41601562 C-100.03700007 32.94395151 -100.02051849 30.47200482 -100 28 C-100.66 28.33 -101.32 28.66 -102 29 C-102.01981934 29.55985596 -102.03963867 30.11971191 -102.06005859 30.6965332 C-102.15537783 33.23565854 -102.26502753 35.77396888 -102.375 38.3125 C-102.42140625 39.63411133 -102.42140625 39.63411133 -102.46875 40.98242188 C-102.50742188 41.82998047 -102.54609375 42.67753906 -102.5859375 43.55078125 C-102.6173584 44.33106689 -102.6487793 45.11135254 -102.68115234 45.9152832 C-103 48 -103 48 -105 51 C-107.3125 51.875 -107.3125 51.875 -110 52 C-112.2831838 50.8584081 -114.19012683 49.80987317 -116 48 C-116.08669432 46.5112814 -116.10703494 45.018555 -116.09765625 43.52734375 C-116.09443359 42.62822266 -116.09121094 41.72910156 -116.08789062 40.80273438 C-116.07951172 39.85720703 -116.07113281 38.91167969 -116.0625 37.9375 C-116.05573242 36.5134082 -116.05573242 36.5134082 -116.04882812 35.06054688 C-116.0370011 32.70696935 -116.02052025 30.35351523 -116 28 C-116.66 28 -117.32 28 -118 28 C-117.96519531 29.24136719 -117.93039063 30.48273437 -117.89453125 31.76171875 C-117.86638416 33.40363226 -117.83908499 35.04556046 -117.8125 36.6875 C-117.77479492 37.91243164 -117.77479492 37.91243164 -117.73632812 39.16210938 C-117.67827031 43.94220289 -117.85550575 47.12867618 -121 51 C-123.59336234 52.29668117 -124.79854102 52.04796642 -127.625 51.375 C-130.67616898 49.60853375 -130.94766433 48.31444306 -132 45 C-132.25878906 42.4921875 -132.25878906 42.4921875 -132.265625 39.875 C-132.26820313 38.92109375 -132.27078125 37.9671875 -132.2734375 36.984375 C-132.26570312 35.99953125 -132.25796875 35.0146875 -132.25 34 C-132.25773438 33.01515625 -132.26546875 32.0303125 -132.2734375 31.015625 C-132.27085937 30.06171875 -132.26828125 29.1078125 -132.265625 28.125 C-132.26336914 27.26132812 -132.26111328 26.39765625 -132.25878906 25.5078125 C-131.97054584 22.71457254 -131.15021872 20.54944209 -130 18 C-122.46947483 16.56561425 -113.31608526 15.56130491 -106 18 C-105.34 17.67 -104.68 17.34 -104 17 C-94.41002511 16.07144688 -94.41002511 16.07144688 -90.4375 18.6875 C-88.95837259 21.06696583 -87.88558181 23.34325456 -87 26 C-86.443125 25.071875 -85.88625 24.14375 -85.3125 23.1875 C-82.92656802 19.89878294 -81.60610846 18.72224508 -78 17 C-72.7119888 16.25782299 -66.71321369 15.70571078 -61.7890625 18.0546875 C-59.68974853 19.78534145 -58.21697946 21.56604109 -57 24 C-56.484375 23.030625 -55.96875 22.06125 -55.4375 21.0625 C-53 18 -53 18 -50.125 17.125 C-48.75194358 17.04087401 -47.3756005 17.00918598 -46 17 C-44.84628906 16.97421875 -43.69257812 16.9484375 -42.50390625 16.921875 C-32.40434565 16.79782717 -32.40434565 16.79782717 -30 18 C-29.01 17.505 -29.01 17.505 -28 17 C-22.55518893 16.38625318 -18.38411467 15.97575515 -13.875 19.3125 C-12 22 -12 22 -11 25 C-10.9906543 24.38479492 -10.98130859 23.76958984 -10.97167969 23.13574219 C-10.91788915 20.33968914 -10.83426181 17.5452938 -10.75 14.75 C-10.73582031 13.78191406 -10.72164063 12.81382813 -10.70703125 11.81640625 C-10.46002818 4.65331734 -10.46002818 4.65331734 -8.140625 1.359375 C-5.18324825 -0.51866717 -3.43753245 -0.57292207 0 0 Z M-71 27 C-71 27.66 -71 28.32 -71 29 C-70.34 28.67 -69.68 28.34 -69 28 C-69.66 27.67 -70.32 27.34 -71 27 Z M25 31 C25 34.63 25 38.26 25 42 C25.33 42 25.66 42 26 42 C26 38.37 26 34.74 26 31 C25.67 31 25.34 31 25 31 Z M8 44 C9 46 9 46 9 46 Z M18 44 C17.67 44.99 17.34 45.98 17 47 C17.66 47 18.32 47 19 47 C18.67 46.01 18.34 45.02 18 44 Z " fill="#7EC8F3" transform="translate(141,28)"/>
<path d="M0 0 C0.83724609 -0.00128906 1.67449219 -0.00257812 2.53710938 -0.00390625 C3.41302734 -0.00003906 4.28894531 0.00382812 5.19140625 0.0078125 C6.06345703 0.00394531 6.93550781 0.00007813 7.83398438 -0.00390625 C8.67251953 -0.00261719 9.51105469 -0.00132813 10.375 0 C11.14255615 0.00112793 11.9101123 0.00225586 12.70092773 0.00341797 C14.75390625 0.1328125 14.75390625 0.1328125 17.75390625 1.1328125 C18.41390625 0.8028125 19.07390625 0.4728125 19.75390625 0.1328125 C29.34388114 -0.79574062 29.34388114 -0.79574062 33.31640625 1.8203125 C34.79553366 4.19977833 35.86832444 6.47606706 36.75390625 9.1328125 C37.31078125 8.1840625 37.86765625 7.2353125 38.44140625 6.2578125 C40.81960927 3.04402463 41.99425051 2.17716132 45.75390625 1.1328125 C45.09390625 3.1128125 44.43390625 5.0928125 43.75390625 7.1328125 C42.76390625 7.1328125 41.77390625 7.1328125 40.75390625 7.1328125 C38.78295817 12.06018269 38.57391345 15.91302122 38.75390625 21.1328125 C39.74390625 21.1328125 40.73390625 21.1328125 41.75390625 21.1328125 C42.24890625 25.5878125 42.24890625 25.5878125 42.75390625 30.1328125 C45.39390625 31.1228125 48.03390625 32.1128125 50.75390625 33.1328125 C51.08390625 32.8028125 51.41390625 32.4728125 51.75390625 32.1328125 C50.43390625 31.8028125 49.11390625 31.4728125 47.75390625 31.1328125 C47.91890625 30.0190625 48.08390625 28.9053125 48.25390625 27.7578125 C48.79945205 24.41249217 48.79945205 24.41249217 48.75390625 22.1328125 C49.41390625 22.1328125 50.07390625 22.1328125 50.75390625 22.1328125 C50.75390625 22.7928125 50.75390625 23.4528125 50.75390625 24.1328125 C55.37390625 24.1328125 59.99390625 24.1328125 64.75390625 24.1328125 C65.74390625 26.6078125 65.74390625 26.6078125 66.75390625 29.1328125 C65.56640625 31.8828125 65.56640625 31.8828125 63.75390625 34.1328125 C57.52107883 36.21042164 50.17968557 36.22112333 44.19140625 33.3828125 C41.35288522 31.73045098 39.41005766 30.03107747 37.75390625 27.1328125 C37.36203125 28.0815625 36.97015625 29.0303125 36.56640625 30.0078125 C34.75390625 33.1328125 34.75390625 33.1328125 32.37890625 34.6328125 C29.15226548 35.24741074 27.62443747 34.64781509 24.75390625 33.1328125 C23.75390625 32.1328125 23.75390625 32.1328125 23.64038086 30.09155273 C23.64561768 29.21700439 23.65085449 28.34245605 23.65625 27.44140625 C23.65947266 26.49716797 23.66269531 25.55292969 23.66601562 24.58007812 C23.67439453 23.58685547 23.68277344 22.59363281 23.69140625 21.5703125 C23.69591797 20.57322266 23.70042969 19.57613281 23.70507812 18.54882812 C23.71690618 16.07676401 23.73338776 13.60481732 23.75390625 11.1328125 C22.76390625 11.6278125 22.76390625 11.6278125 21.75390625 12.1328125 C21.73408691 12.69266846 21.71426758 13.25252441 21.69384766 13.8293457 C21.59852842 16.36847104 21.48887872 18.90678138 21.37890625 21.4453125 C21.3325 22.76692383 21.3325 22.76692383 21.28515625 24.11523438 C21.24648438 24.96279297 21.2078125 25.81035156 21.16796875 26.68359375 C21.13654785 27.46387939 21.10512695 28.24416504 21.07275391 29.0480957 C20.75390625 31.1328125 20.75390625 31.1328125 18.75390625 34.1328125 C16.44140625 35.0078125 16.44140625 35.0078125 13.75390625 35.1328125 C11.47072245 33.9912206 9.56377942 32.94268567 7.75390625 31.1328125 C7.66721193 29.6440939 7.64687131 28.1513675 7.65625 26.66015625 C7.65947266 25.76103516 7.66269531 24.86191406 7.66601562 23.93554688 C7.67439453 22.99001953 7.68277344 22.04449219 7.69140625 21.0703125 C7.69817383 19.6462207 7.69817383 19.6462207 7.70507812 18.19335938 C7.71690515 15.83978185 7.733386 13.48632773 7.75390625 11.1328125 C7.09390625 11.1328125 6.43390625 11.1328125 5.75390625 11.1328125 C5.78871094 12.37417969 5.82351562 13.61554687 5.859375 14.89453125 C5.88752209 16.53644476 5.91482126 18.17837296 5.94140625 19.8203125 C5.97911133 21.04524414 5.97911133 21.04524414 6.01757812 22.29492188 C6.07563594 27.07501539 5.8984005 30.26148868 2.75390625 34.1328125 C0.16054391 35.42949367 -1.04463477 35.18077892 -3.87109375 34.5078125 C-6.92226273 32.74134625 -7.19375808 31.44725556 -8.24609375 28.1328125 C-8.50488281 25.625 -8.50488281 25.625 -8.51171875 23.0078125 C-8.51429687 22.05390625 -8.516875 21.1 -8.51953125 20.1171875 C-8.51179687 19.13234375 -8.5040625 18.1475 -8.49609375 17.1328125 C-8.50382813 16.14796875 -8.5115625 15.163125 -8.51953125 14.1484375 C-8.51695313 13.19453125 -8.514375 12.240625 -8.51171875 11.2578125 C-8.50946289 10.39414062 -8.50720703 9.53046875 -8.50488281 8.640625 C-8.21281089 5.81028272 -7.50501694 3.67949764 -6.24609375 1.1328125 C-3.93085336 -0.0248077 -2.57493313 0.00378945 0 0 Z " fill="#7EC9F5" transform="translate(17.24609375,44.8671875)"/>
<path d="M0 0 C1.734375 1.2421875 1.734375 1.2421875 3 3 C3.109375 5.15625 3.109375 5.15625 2.75 7.5 C2.64171875 8.2734375 2.5334375 9.046875 2.421875 9.84375 C2 12 2 12 1 15 C0.90729714 16.45598022 0.87002075 17.91608005 0.875 19.375 C0.87242187 20.12523438 0.86984375 20.87546875 0.8671875 21.6484375 C0.94453396 24.02201705 0.94453396 24.02201705 1.48828125 26.39453125 C2.79819977 33.06411639 3.13989383 40.48289691 0.25 46.75 C-2 50 -2 50 -4.140625 50.703125 C-5.06101563 50.85007812 -5.06101563 50.85007812 -6 51 C-6 49.35 -6 47.7 -6 46 C-6.165 47.093125 -6.33 48.18625 -6.5 49.3125 C-8 53 -8 53 -9.6328125 54.1328125 C-18.91931781 57.88383229 -26.11524845 55.65842711 -35 52 C-34.67 51.34 -34.34 50.68 -34 50 C-33.95571559 48.64655763 -33.96069412 47.2910961 -34 45.9375 C-34 42 -34 42 -33 41 C-32.6068352 39.32115762 -32.25914548 37.63149955 -31.9375 35.9375 C-31.76089844 35.01839844 -31.58429688 34.09929688 -31.40234375 33.15234375 C-31.26957031 32.44207031 -31.13679687 31.73179688 -31 31 C-30.01 30.67 -29.02 30.34 -28 30 C-27.484375 30.825 -26.96875 31.65 -26.4375 32.5 C-24.17284997 35.30363333 -24.17284997 35.30363333 -20.625 35.625 C-15.92650723 34.81491504 -14.41183831 33.25314816 -11 30 C-10.34 29.67 -9.68 29.34 -9 29 C-9.309375 28.46375 -9.61875 27.9275 -9.9375 27.375 C-13.41404525 19.60389885 -12.53700125 10.87805652 -10 3 C-7.62560803 -0.99897595 -4.31186102 -0.46198511 0 0 Z M-8 31 C-8 34.63 -8 38.26 -8 42 C-7.67 42 -7.34 42 -7 42 C-7 38.37 -7 34.74 -7 31 C-7.33 31 -7.66 31 -8 31 Z M-25 44 C-24 46 -24 46 -24 46 Z M-15 44 C-15.33 44.99 -15.66 45.98 -16 47 C-15.34 47 -14.68 47 -14 47 C-14.33 46.01 -14.66 45.02 -15 44 Z " fill="#3194C9" transform="translate(174,28)"/>
<path d="M0 0 C0.66666667 1.33333333 1.33333333 2.66666667 2 4 C2.53625 4.99 3.0725 5.98 3.625 7 C5.72786446 11.58806791 4.83804464 15.43124331 4 20.25 C3.814375 21.32765625 3.62875 22.4053125 3.4375 23.515625 C3.293125 24.33546875 3.14875 25.1553125 3 26 C6.11332248 25.33131686 6.11332248 25.33131686 7.1875 22.9375 C7.455625 22.298125 7.72375 21.65875 8 21 C8.0814222 23.22855574 8.13938079 25.45797655 8.1875 27.6875 C8.22230469 28.92886719 8.25710937 30.17023438 8.29296875 31.44921875 C7.97972007 35.24579271 7.4126837 37.07767075 5 40 C2.89135742 40.6315918 2.89135742 40.6315918 1 41 C1.01160156 39.81664062 1.02320313 38.63328125 1.03515625 37.4140625 C1.09072938 29.20139628 1.05306401 21.16124606 0 13 C-0.99 12.67 -1.98 12.34 -3 12 C-3 11.01 -3 10.02 -3 9 C-3.66 8.67 -4.32 8.34 -5 8 C-4.34 8 -3.68 8 -3 8 C-2.690625 6.865625 -2.38125 5.73125 -2.0625 4.5625 C-1 1 -1 1 0 0 Z " fill="#3492C7" transform="translate(167,38)"/>
<path d="M0 0 C3.05826424 0.10194214 4.07302606 1.06907871 6.3125 3.1875 C8 6 8 6 7.75 9.3125 C7.5025 10.199375 7.255 11.08625 7 12 C8.65 12 10.3 12 12 12 C12 13.32 12 14.64 12 16 C7.05 16.495 7.05 16.495 2 17 C2 16.34 2 15.68 2 15 C0.68 15 -0.64 15 -2 15 C-1.67 14.01 -1.34 13.02 -1 12 C-0.01 12 0.98 12 2 12 C2 11.34 2 10.68 2 10 C2.66 9.34 3.32 8.68 4 8 C3.67 7.01 3.34 6.02 3 5 C2.01 5.495 2.01 5.495 1 6 C1 5.01 1 4.02 1 3 C0.01 2.67 -0.98 2.34 -2 2 C-1.34 1.34 -0.68 0.68 0 0 Z " fill="#2296D0" transform="translate(148,66)"/>
<path d="M0 0 C4.20137226 3.08100632 4.86663248 6.36514936 5.6953125 11.25 C6.16730339 15.51002037 6.16385915 19.72145552 6 24 C5.34 24 4.68 24 4 24 C4.04125 25.258125 4.0825 26.51625 4.125 27.8125 C4.2390374 31.29064073 4.05925681 31.91111478 2 35 C-3.16548454 36.96288412 -7.56940269 37.19054727 -13 37 C-13 36.67 -13 36.34 -13 36 C-8.71 35.01 -4.42 34.02 0 33 C0 29.7 0 26.4 0 23 C0.99 22.67 1.98 22.34 3 22 C3.33711217 15.68226823 3.08301538 11.65219486 0 6 C-0.1875 2.625 -0.1875 2.625 0 0 Z " fill="#4093BF" transform="translate(163,47)"/>
<path d="M0 0 C0.33 0 0.66 0 1 0 C1.08103404 2.91722548 1.14051081 5.83219516 1.1875 8.75 C1.21263672 9.575 1.23777344 10.4 1.26367188 11.25 C1.33727613 17.33461839 1.33727613 17.33461839 -0.29296875 20.55078125 C-2 22 -2 22 -5.5 22.4375 C-9 22 -9 22 -10.70703125 20.796875 C-12.45390642 18.36919349 -12.30273992 16.77032452 -12.1875 13.8125 C-12.16042969 12.91144531 -12.13335937 12.01039062 -12.10546875 11.08203125 C-12.07066406 10.39496094 -12.03585938 9.70789063 -12 9 C-11.34 9 -10.68 9 -10 9 C-8.875 10.75 -8.875 10.75 -8 13 C-8.875 15.25 -8.875 15.25 -10 17 C-9.566875 16.566875 -9.13375 16.13375 -8.6875 15.6875 C-6.34375 13.34375 -6.34375 13.34375 -4 11 C-4 13.31 -4 15.62 -4 18 C-4.66 18.33 -5.32 18.66 -6 19 C-4.68 19 -3.36 19 -2 19 C-1.34 12.73 -0.68 6.46 0 0 Z " fill="#87C4E8" transform="translate(98,57)"/>
<path d="M0 0 C0.66666667 1.33333333 1.33333333 2.66666667 2 4 C2.53625 4.99 3.0725 5.98 3.625 7 C5.54475782 11.18856252 5.1454575 14.64726152 4 19 C3.34 19.66 2.68 20.32 2 21 C0.23537317 17.91190305 0 16.76687864 0 13 C-0.99 12.67 -1.98 12.34 -3 12 C-3 11.01 -3 10.02 -3 9 C-3.66 8.67 -4.32 8.34 -5 8 C-4.34 8 -3.68 8 -3 8 C-2.690625 6.865625 -2.38125 5.73125 -2.0625 4.5625 C-1 1 -1 1 0 0 Z " fill="#2298D1" transform="translate(167,38)"/>
<path d="M0 0 C0.66 0 1.32 0 2 0 C2 3.63 2 7.26 2 11 C2.66 11 3.32 11 4 11 C4 12.65 4 14.3 4 16 C3.34 16 2.68 16 2 16 C2 17.32 2 18.64 2 20 C2.66 20 3.32 20 4 20 C4 20.66 4 21.32 4 22 C4.66 22 5.32 22 6 22 C6 21.34 6 20.68 6 20 C7.98 20 9.96 20 12 20 C11.67 20.99 11.34 21.98 11 23 C7.67707176 24.04434887 6.43241099 24.2162055 3.25 22.625 C1 21 1 21 0 20 C-0.08669432 18.5112814 -0.10703494 17.018555 -0.09765625 15.52734375 C-0.09443359 14.62822266 -0.09121094 13.72910156 -0.08789062 12.80273438 C-0.07951172 11.85720703 -0.07113281 10.91167969 -0.0625 9.9375 C-0.05798828 8.98810547 -0.05347656 8.03871094 -0.04882812 7.06054688 C-0.0370011 4.70696935 -0.02052025 2.35351523 0 0 Z " fill="#8DC6E4" transform="translate(25,56)"/>
<path d="M0 0 C0.226875 0.5775 0.45375 1.155 0.6875 1.75 C1.92469103 4.2118792 1.92469103 4.2118792 4.625 5.9375 C7 8 7 8 7.3125 10.75 C7.1578125 11.86375 7.1578125 11.86375 7 13 C5.88625 12.814375 4.7725 12.62875 3.625 12.4375 C0.17431139 11.68319343 0.17431139 11.68319343 -2 13 C-1.855625 12.34 -1.71125 11.68 -1.5625 11 C-0.87700084 7.34400449 -0.43824485 3.69377805 0 0 Z " fill="#399ED4" transform="translate(142,61)"/>
<path d="M0 0 C0.66 0.33 1.32 0.66 2 1 C2 6.61 2 12.22 2 18 C1.67 17.34 1.34 16.68 1 16 C-0.32 16 -1.64 16 -3 16 C-3 14.35 -3 12.7 -3 11 C-2.01 10.67 -1.02 10.34 0 10 C0 6.7 0 3.4 0 0 Z " fill="#8CC7E8" transform="translate(21,56)"/>
<path d="M0 0 C1.0725 0.103125 2.145 0.20625 3.25 0.3125 C3.58 0.9725 3.91 1.6325 4.25 2.3125 C1.94 2.3125 -0.37 2.3125 -2.75 2.3125 C-4.67908943 7.54859987 -5.73408579 12.84385543 -6.75 18.3125 C-7.41 18.3125 -8.07 18.3125 -8.75 18.3125 C-8.68958131 16.2492016 -8.60068362 14.18672586 -8.5 12.125 C-8.45359375 10.97644531 -8.4071875 9.82789063 -8.359375 8.64453125 C-7.36801863 3.22384548 -5.60497081 0.4670809 0 0 Z " fill="#3E8CB8" transform="translate(170.75,27.6875)"/>
<path d="M0 0 C0.66 0.33 1.32 0.66 2 1 C1.67 1.99 1.34 2.98 1 4 C0.85426942 5.47965926 0.75336732 6.96403843 0.68359375 8.44921875 C0.64169922 9.29677734 0.59980469 10.14433594 0.55664062 11.01757812 C0.49766602 12.33918945 0.49766602 12.33918945 0.4375 13.6875 C0.39431641 14.58017578 0.35113281 15.47285156 0.30664062 16.39257812 C0.20064647 18.59490108 0.09857949 20.79733473 0 23 C-0.66 23.33 -1.32 23.66 -2 24 C-2.05802698 20.56257082 -2.09360486 17.12526747 -2.125 13.6875 C-2.14175781 12.71103516 -2.15851563 11.73457031 -2.17578125 10.72851562 C-2.18222656 9.79072266 -2.18867188 8.85292969 -2.1953125 7.88671875 C-2.20578613 7.02264404 -2.21625977 6.15856934 -2.22705078 5.26831055 C-2 3 -2 3 0 0 Z " fill="#8CC2E1" transform="translate(133,29)"/>
<path d="M0 0 C0.33 0 0.66 0 1 0 C1.33 6.6 1.66 13.2 2 20 C2.99 20 3.98 20 5 20 C5 20.66 5 21.32 5 22 C6.98 21.67 8.96 21.34 11 21 C10.01 21.99 9.02 22.98 8 24 C1.125 22.125 1.125 22.125 0 21 C-0.08685603 19.43827255 -0.10702219 17.87270656 -0.09765625 16.30859375 C-0.09443359 15.36435547 -0.09121094 14.42011719 -0.08789062 13.44726562 C-0.07951172 12.45404297 -0.07113281 11.46082031 -0.0625 10.4375 C-0.05798828 9.44041016 -0.05347656 8.44332031 -0.04882812 7.41601562 C-0.03700007 4.94395151 -0.02051849 2.47200482 0 0 Z " fill="#97C7E2" transform="translate(41,56)"/>
<path d="M0 0 C1.65 0.33 3.3 0.66 5 1 C4.01 1.66 3.02 2.32 2 3 C1.49378487 5.02276681 1.49378487 5.02276681 1.48828125 7.3515625 C1.45283203 8.20234375 1.41738281 9.053125 1.38085938 9.9296875 C1.35830078 10.81914063 1.33574219 11.70859375 1.3125 12.625 C1.27833984 13.5221875 1.24417969 14.419375 1.20898438 15.34375 C1.12637598 17.56237538 1.05727281 19.7805994 1 22 C0.67 22 0.34 22 0 22 C0 17.05 0 12.1 0 7 C-0.99 7 -1.98 7 -3 7 C-3 5.35 -3 3.7 -3 2 C-2.01 2.33 -1.02 2.66 0 3 C0 2.01 0 1.02 0 0 Z " fill="#85C4E7" transform="translate(37,54)"/>
<path d="M0 0 C1.32 0 2.64 0 4 0 C4 0.763125 4 1.52625 4 2.3125 C4.79829187 5.3857032 4.79829187 5.3857032 8.4375 6.75 C13.19833627 8.27934305 18.02905113 8.70459525 23 9 C23 9.33 23 9.66 23 10 C15.48623458 10.45082593 9.25009289 10.6053316 3 6 C0 2.8125 0 2.8125 0 0 Z " fill="#8CC4E3" transform="translate(55,70)"/>
<path d="M0 0 C1.65 0 3.3 0 5 0 C4.79375 0.5775 4.5875 1.155 4.375 1.75 C3.90760524 4.55436855 4.46287916 5.65386819 6 8 C6.66 8.33 7.32 8.66 8 9 C8 9.66 8 10.32 8 11 C7.01 11.33 6.02 11.66 5 12 C5 10.68 5 9.36 5 8 C3.35 8 1.7 8 0 8 C0 5.36 0 2.72 0 0 Z " fill="#3B98C9" transform="translate(155,70)"/>
<path d="M0 0 C4.29 0 8.58 0 13 0 C15 5 15 5 13.8125 7.8125 C13.214375 8.534375 12.61625 9.25625 12 10 C11.01 10 10.02 10 9 10 C9 9.01 9 8.02 9 7 C9.99 6.34 10.98 5.68 12 5 C12 4.34 12 3.68 12 3 C6.06 2.01 6.06 2.01 0 1 C0 0.67 0 0.34 0 0 Z " fill="#8BC1DE" transform="translate(69,69)"/>
<path d="M0 0 C0.33 0 0.66 0 1 0 C1.33 4.29 1.66 8.58 2 13 C5.3 13 8.6 13 12 13 C12 13.66 12 14.32 12 15 C8.9167365 16.54163175 6.39121901 16.29747535 3 16 C0.56983989 13.68635442 0.03340067 12.34380427 -0.29296875 8.984375 C-0.25816406 7.91703125 -0.22335938 6.8496875 -0.1875 5.75 C-0.14689453 4.13351563 -0.14689453 4.13351563 -0.10546875 2.484375 C-0.07066406 1.66453125 -0.03585938 0.8446875 0 0 Z " fill="#8AC1E2" transform="translate(117,63)"/>
<path d="M0 0 C2.875 0.1875 2.875 0.1875 6 1 C8.24095934 4.56516258 8.19206739 7.87055112 8 12 C5.20615345 10.60307672 4.91757157 8.56793257 3.796875 5.7890625 C2.8216071 3.59949046 1.53777987 1.83069032 0 0 Z " fill="#2294CD" transform="translate(156,68)"/>
<path d="M0 0 C0.33 0.99 0.66 1.98 1 3 C4.3 3 7.6 3 11 3 C11.33 2.34 11.66 1.68 12 1 C11.8125 2.875 11.8125 2.875 11 5 C8.07696922 6.78629659 6.62104745 7.12703243 3.25 6.4375 C1 5 1 5 0.1875 2.375 C0.125625 1.59125 0.06375 0.8075 0 0 Z " fill="#90C6E6" transform="translate(10,73)"/>
<path d="M0 0 C0.99 0.33 1.98 0.66 3 1 C3 3.97 3 6.94 3 10 C2.34 10 1.68 10 1 10 C1 8.02 1 6.04 1 4 C-0.65 4 -2.3 4 -4 4 C-2.68 2.68 -1.36 1.36 0 0 Z " fill="#3E91C1" transform="translate(163,58)"/>
<path d="M0 0 C0.66 0.33 1.32 0.66 2 1 C1.34 2.65 0.68 4.3 0 6 C-0.99 6 -1.98 6 -3 6 C-3.66 7.32 -4.32 8.64 -5 10 C-5.99 9.67 -6.98 9.34 -8 9 C-7.04663979 7.68388323 -6.08714226 6.37221039 -5.125 5.0625 C-4.59132812 4.33160156 -4.05765625 3.60070313 -3.5078125 2.84765625 C-2 1 -2 1 0 0 Z " fill="#8BC6E7" transform="translate(61,46)"/>
<path d="M0 0 C0.33 0.99 0.66 1.98 1 3 C-0.08203125 4.48828125 -0.08203125 4.48828125 -2 6 C-5.13671875 6.29296875 -5.13671875 6.29296875 -8.6875 6.1875 C-10.45673828 6.14689453 -10.45673828 6.14689453 -12.26171875 6.10546875 C-13.61716797 6.05326172 -13.61716797 6.05326172 -15 6 C-15 5.67 -15 5.34 -15 5 C-13.01432292 4.77213542 -11.02864583 4.54427083 -9.04296875 4.31640625 C-6.80603607 4.02829265 -6.80603607 4.02829265 -4 3 C-3.01 3.33 -2.02 3.66 -1 4 C-0.67 2.68 -0.34 1.36 0 0 Z " fill="#89C2E1" transform="translate(84,61)"/>
<path d="M0 0 C0.33 0 0.66 0 1 0 C1 1.98 1 3.96 1 6 C1.66 6 2.32 6 3 6 C3 8.31 3 10.62 3 13 C1.68 12.34 0.36 11.68 -1 11 C-0.67 7.37 -0.34 3.74 0 0 Z " fill="#71C2ED" transform="translate(129,55)"/>
<path d="M0 0 C1.98 0.495 1.98 0.495 4 1 C2.515 4.96 2.515 4.96 1 9 C0.34 8.67 -0.32 8.34 -1 8 C-0.67 5.36 -0.34 2.72 0 0 Z " fill="#1796D6" transform="translate(169,50)"/>
<path d="M0 0 C0 0.33 0 0.66 0 1 C-4.95 2.485 -4.95 2.485 -10 4 C-9.67 2.68 -9.34 1.36 -9 0 C-5.93109813 -1.53445094 -3.29905734 -0.54984289 0 0 Z " fill="#86BCDF" transform="translate(20,46)"/>
<path d="M0 0 C0.33 0.66 0.66 1.32 1 2 C2.65 2 4.3 2 6 2 C5.67 2.99 5.34 3.98 5 5 C3.35 5.33 1.7 5.66 0 6 C-1 3 -1 3 0 0 Z " fill="#2A94CB" transform="translate(141,71)"/>
<path d="M0 0 C0.66 0 1.32 0 2 0 C3.1875 1.625 3.1875 1.625 4 4 C2.625 7.25 2.625 7.25 1 10 C0.67 10 0.34 10 0 10 C0 6.7 0 3.4 0 0 Z " fill="#8DC7EC" transform="translate(86,66)"/>
<path d="M0 0 C0.33 0 0.66 0 1 0 C1.33 3.96 1.66 7.92 2 12 C1.34 12 0.68 12 0 12 C0 11.34 0 10.68 0 10 C-0.66 9.67 -1.32 9.34 -2 9 C-2 8.34 -2 7.68 -2 7 C-1.34 7 -0.68 7 0 7 C0 4.69 0 2.38 0 0 Z " fill="#428EB8" transform="translate(173,44)"/>
<path d="M0 0 C1.98 0 3.96 0 6 0 C5.67 0.99 5.34 1.98 5 3 C3.35 3.33 1.7 3.66 0 4 C-0.33 3.34 -0.66 2.68 -1 2 C-0.67 1.34 -0.34 0.68 0 0 Z " fill="#92C9EE" transform="translate(31,76)"/>
<path d="M0 0 C1.98 0 3.96 0 6 0 C7.09658936 3.28976808 6.79953138 4.71303767 6 8 C4.5393715 5.35261084 4 4.10551666 4 1 C2.68 1.33 1.36 1.66 0 2 C0 1.34 0 0.68 0 0 Z " fill="#71C6E7" transform="translate(48,66)"/>
<path d="M0 0 C-0.33 0.66 -0.66 1.32 -1 2 C-3.64 2 -6.28 2 -9 2 C-9.33 1.34 -9.66 0.68 -10 0 C-6.42355152 -1.2380014 -3.66305234 -0.74926071 0 0 Z " fill="#8CC3E1" transform="translate(113,77)"/>
<path d="M0 0 C0.33 0.66 0.66 1.32 1 2 C1.66 2 2.32 2 3 2 C2.67 3.65 2.34 5.3 2 7 C1.34 7 0.68 7 0 7 C-1.125 2.25 -1.125 2.25 0 0 Z " fill="#2393CE" transform="translate(169,69)"/>
<path d="M0 0 C-0.33 1.32 -0.66 2.64 -1 4 C-2.65 4 -4.3 4 -6 4 C-5.67 3.01 -5.34 2.02 -5 1 C-2 0 -2 0 0 0 Z " fill="#1598D5" transform="translate(152,77)"/>
<path d="M0 0 C0 1.65 0 3.3 0 5 C-3.875 3.25 -3.875 3.25 -5 1 C-3 0 -3 0 0 0 Z " fill="#85C7EB" transform="translate(139,73)"/>
<path d="M0 0 C2 1 2 1 2.6875 3 C2.790625 3.66 2.89375 4.32 3 5 C2 6 2 6 -1.0625 6.0625 C-2.5165625 6.0315625 -2.5165625 6.0315625 -4 6 C-3.01 5.34 -2.02 4.68 -1 4 C-0.27617533 1.94074861 -0.27617533 1.94074861 0 0 Z " fill="#3B94C5" transform="translate(150,70)"/>
<path d="M0 0 C1.09658936 3.28976808 0.79953138 4.71303767 0 8 C-0.99 7.34 -1.98 6.68 -3 6 C-2.67 4.68 -2.34 3.36 -2 2 C-1.34 2 -0.68 2 0 2 C0 1.34 0 0.68 0 0 Z " fill="#3696CB" transform="translate(173,41)"/>
</svg>
